<svg version="1.1" id="Layer_1" xmlns="http://www.w3.org/2000/svg" xmlns:xlink="http://www.w3.org/1999/xlink" x="0px" y="0px" style="enable-background:new 0 0 331.6 141;" xml:space="preserve" viewBox="39.9 28.7 236.1 84.6">
<style type="text/css">
.st0{fill:#FF00C4;}
.st1{fill:#F994FA;}
.st2{fill:#FFFFFF;}
</style>
<g>
<polygon class="st0" points="52.5,29.7 39.9,29.7 39.9,64.5"></polygon>
<polygon class="st1" points="39.9,77.4 39.9,112.3 52.5,112.3"></polygon>
</g>
<g>
<g>
<path class="st2" d="M83.9,29.7h13.4v82.6H83.9V29.7z"></path>
<path class="st2" d="M126,71.1h0.2V29.7h11.5v82.6h-11.8l-9.4-48.3h-0.2v48.3h-11.5V29.7h14.2L126,71.1z"></path>
<path class="st2" d="M143.1,29.7h25.9v10.9h-12.6v24.5h11.3V76h-11.3v25.3h12.6v10.9h-25.9V29.7z"></path>
<path class="st2" d="M203.7,61h-12.4V44.3c0-3.3-0.9-5.4-3-5.4s-2.9,2-2.9,5.4v10.2c0,4.6,1.4,6.1,4.8,9.4l6.4,5.8 c5.5,5.2,7.4,8.6,7.4,17v9.8c0,10.8-6.1,16.8-16,16.8s-15.5-5.9-15.5-16.8V80.6h12.5v17.1c0,3.3,0.9,5.4,3,5.4s2.9-2,2.9-5.4V86.9 c0-4.6-1-5.6-4.5-8.7l-6.6-5.9c-4.8-4.5-7.4-8.4-7.4-16.1V45.5c0-10.8,6-16.8,16-16.8s15.3,5.9,15.3,16.8 C203.7,45.5,203.7,61,203.7,61z"></path>
<path class="st2" d="M238.9,61h-12.4V44.3c0-3.3-0.9-5.4-3-5.4s-2.9,2-2.9,5.4v10.2c0,4.6,1.4,6.1,4.8,9.4l6.4,5.8 c5.5,5.2,7.4,8.6,7.4,17v9.8c0,10.8-6.1,16.8-16,16.8s-15.5-5.9-15.5-16.8V80.6h12.5v17.1c0,3.3,0.9,5.4,3,5.4s2.9-2,2.9-5.4V86.9 c0-4.6-1-5.6-4.5-8.7l-6.6-5.9c-4.8-4.5-7.4-8.4-7.4-16.1V45.5c0-10.8,6-16.8,16-16.8s15.3,5.9,15.3,16.8 			C238.9,45.5,238.9,61,238.9,61z"></path> 		<path class="st2" d="M276,96.6c0,10.7-6.1,16.6-16.3,16.6s-16.4-5.9-16.4-16.6V45.4c0-10.7,6.1-16.6,16.4-16.6 			c10.3,0,16.3,5.9,16.3,16.6V96.6z M259.7,103c2.1,0,3-2,3-5.4V44.3c0-3.3-0.9-5.4-3-5.4c-2.2,0-3.1,2-3.1,5.4v53.4 			C256.6,101,257.5,103,259.7,103z"></path>
<polygon class="st2" points="79.7,29.7 65.9,29.7 51,71 65.9,112.3 79.7,112.3 64.8,71"></polygon>
</g>
</g>
</svg>